<?xml version="1.0" encoding="UTF-8" standalone="no"?>
<!DOCTYPE svg PUBLIC "-//W3C//DTD SVG 1.1//EN" "http://www.w3.org/Graphics/SVG/1.1/DTD/svg11.dtd">
<svg xmlns="http://www.w3.org/2000/svg" version="1.1" viewBox="0.00 0.00 512.00 512.00">
<g stroke-width="2.00" fill="none" stroke-linecap="butt">
<path stroke="#b086fd" vector-effect="non-scaling-stroke" d="
  M 188.38 328.84
  Q 202.97 328.83 217.70 328.51
  Q 218.24 328.49 218.24 327.95
  L 218.24 314.19
  Q 218.24 313.62 217.67 313.62
  Q 191.26 313.47 183.76 313.67
  Q 174.01 313.93 166.25 309.89
  C 147.13 299.92 144.24 274.00 160.57 260.03
  Q 168.28 253.43 179.28 252.74
  C 185.63 252.34 187.44 250.05 187.77 243.58
  Q 189.29 213.55 210.52 194.30
  C 230.73 175.96 260.29 171.50 285.05 183.18
  Q 314.51 197.08 322.87 230.05
  C 324.09 234.86 325.17 236.99 330.04 237.90
  Q 350.43 241.67 358.66 259.32
  C 368.84 281.14 356.70 306.23 334.03 312.18
  Q 328.76 313.56 318.34 313.56
  Q 306.54 313.56 294.70 313.57
  Q 294.20 313.57 294.20 314.07
  L 294.22 328.05
  A 0.62 0.62 0.0 0 0 294.84 328.67
  Q 305.67 328.72 316.50 328.70
  Q 330.38 328.68 336.41 327.33
  C 359.84 322.06 376.38 301.30 377.32 277.72
  C 378.35 252.12 362.20 230.90 337.74 224.03
  Q 337.25 223.89 337.10 223.40
  Q 326.64 187.24 294.74 170.29
  C 261.08 152.39 220.77 160.04 194.81 187.31
  Q 175.46 207.64 172.78 237.55
  A 0.72 0.72 0.0 0 1 172.20 238.19
  C 150.93 242.23 136.48 258.69 134.85 280.51
  C 133.22 302.25 147.53 321.24 168.05 327.06
  Q 172.28 328.26 178.15 328.57
  Q 183.25 328.85 188.38 328.84"
/>
<path stroke="#b086fd" vector-effect="non-scaling-stroke" d="
  M 264.67 279.37
  L 280.93 295.68
  A 0.60 0.60 0.0 0 0 281.79 295.68
  L 291.45 285.79
  Q 291.83 285.40 291.45 285.00
  Q 276.97 270.02 262.05 255.45
  C 257.74 251.24 253.50 252.38 249.43 256.41
  Q 235.07 270.64 220.93 284.92
  A 0.62 0.61 44.7 0 0 220.94 285.78
  L 230.82 295.66
  A 0.45 0.45 0.0 0 0 231.46 295.66
  L 247.97 279.24
  A 0.36 0.36 0.0 0 1 248.58 279.50
  L 248.54 351.00
  Q 248.54 351.47 249.00 351.47
  L 263.01 351.43
  A 0.81 0.81 0.0 0 0 263.82 350.62
  L 263.81 279.73
  A 0.51 0.50 -67.6 0 1 264.67 279.37"
/>
</g>
<path fill="#f4f7fe" d="
  M 492.21 293.41
  C 481.71 363.29 439.52 424.87 379.93 460.93
  Q 338.16 486.21 287.93 493.27
  Q 278.59 494.58 268.01 494.78
  C 250.39 495.13 232.16 495.04 214.90 491.83
  Q 171.37 483.74 133.34 461.41
  C 125.11 456.58 116.97 450.94 109.31 444.61
  Q 88.29 427.25 74.09 410.64
  Q 29.00 357.90 19.70 287.69
  Q 18.48 278.44 18.26 267.75
  C 17.89 249.97 17.87 231.29 21.11 213.88
  C 28.19 175.79 44.61 137.23 69.06 107.08
  C 82.59 90.38 98.31 75.06 115.88 62.67
  Q 137.74 47.24 158.28 38.00
  Q 188.75 24.28 224.82 19.56
  Q 233.62 18.41 244.76 18.30
  C 259.16 18.15 274.31 17.71 288.18 19.66
  C 339.15 26.84 386.49 49.50 423.22 85.69
  Q 478.05 139.71 491.85 216.76
  Q 493.31 224.94 493.50 233.25
  Q 493.97 253.37 493.69 273.50
  Q 493.53 284.61 492.21 293.41
  Z
  M 188.38 328.84
  Q 202.97 328.83 217.70 328.51
  Q 218.24 328.49 218.24 327.95
  L 218.24 314.19
  Q 218.24 313.62 217.67 313.62
  Q 191.26 313.47 183.76 313.67
  Q 174.01 313.93 166.25 309.89
  C 147.13 299.92 144.24 274.00 160.57 260.03
  Q 168.28 253.43 179.28 252.74
  C 185.63 252.34 187.44 250.05 187.77 243.58
  Q 189.29 213.55 210.52 194.30
  C 230.73 175.96 260.29 171.50 285.05 183.18
  Q 314.51 197.08 322.87 230.05
  C 324.09 234.86 325.17 236.99 330.04 237.90
  Q 350.43 241.67 358.66 259.32
  C 368.84 281.14 356.70 306.23 334.03 312.18
  Q 328.76 313.56 318.34 313.56
  Q 306.54 313.56 294.70 313.57
  Q 294.20 313.57 294.20 314.07
  L 294.22 328.05
  A 0.62 0.62 0.0 0 0 294.84 328.67
  Q 305.67 328.72 316.50 328.70
  Q 330.38 328.68 336.41 327.33
  C 359.84 322.06 376.38 301.30 377.32 277.72
  C 378.35 252.12 362.20 230.90 337.74 224.03
  Q 337.25 223.89 337.10 223.40
  Q 326.64 187.24 294.74 170.29
  C 261.08 152.39 220.77 160.04 194.81 187.31
  Q 175.46 207.64 172.78 237.55
  A 0.72 0.72 0.0 0 1 172.20 238.19
  C 150.93 242.23 136.48 258.69 134.85 280.51
  C 133.22 302.25 147.53 321.24 168.05 327.06
  Q 172.28 328.26 178.15 328.57
  Q 183.25 328.85 188.38 328.84
  Z
  M 264.67 279.37
  L 280.93 295.68
  A 0.60 0.60 0.0 0 0 281.79 295.68
  L 291.45 285.79
  Q 291.83 285.40 291.45 285.00
  Q 276.97 270.02 262.05 255.45
  C 257.74 251.24 253.50 252.38 249.43 256.41
  Q 235.07 270.64 220.93 284.92
  A 0.62 0.61 44.7 0 0 220.94 285.78
  L 230.82 295.66
  A 0.45 0.45 0.0 0 0 231.46 295.66
  L 247.97 279.24
  A 0.36 0.36 0.0 0 1 248.58 279.50
  L 248.54 351.00
  Q 248.54 351.47 249.00 351.47
  L 263.01 351.43
  A 0.81 0.81 0.0 0 0 263.82 350.62
  L 263.81 279.73
  A 0.51 0.50 -67.6 0 1 264.67 279.37
  Z"
/>
<path fill="#6b15fc" d="
  M 188.38 328.84
  Q 183.25 328.85 178.15 328.57
  Q 172.28 328.26 168.05 327.06
  C 147.53 321.24 133.22 302.25 134.85 280.51
  C 136.48 258.69 150.93 242.23 172.20 238.19
  A 0.72 0.72 0.0 0 0 172.78 237.55
  Q 175.46 207.64 194.81 187.31
  C 220.77 160.04 261.08 152.39 294.74 170.29
  Q 326.64 187.24 337.10 223.40
  Q 337.25 223.89 337.74 224.03
  C 362.20 230.90 378.35 252.12 377.32 277.72
  C 376.38 301.30 359.84 322.06 336.41 327.33
  Q 330.38 328.68 316.50 328.70
  Q 305.67 328.72 294.84 328.67
  A 0.62 0.62 0.0 0 1 294.22 328.05
  L 294.20 314.07
  Q 294.20 313.57 294.70 313.57
  Q 306.54 313.56 318.34 313.56
  Q 328.76 313.56 334.03 312.18
  C 356.70 306.23 368.84 281.14 358.66 259.32
  Q 350.43 241.67 330.04 237.90
  C 325.17 236.99 324.09 234.86 322.87 230.05
  Q 314.51 197.08 285.05 183.18
  C 260.29 171.50 230.73 175.96 210.52 194.30
  Q 189.29 213.55 187.77 243.58
  C 187.44 250.05 185.63 252.34 179.28 252.74
  Q 168.28 253.43 160.57 260.03
  C 144.24 274.00 147.13 299.92 166.25 309.89
  Q 174.01 313.93 183.76 313.67
  Q 191.26 313.47 217.67 313.62
  Q 218.24 313.62 218.24 314.19
  L 218.24 327.95
  Q 218.24 328.49 217.70 328.51
  Q 202.97 328.83 188.38 328.84
  Z"
/>
<path fill="#6b15fc" d="
  M 280.93 295.68
  L 264.67 279.37
  A 0.51 0.50 -67.6 0 0 263.81 279.73
  L 263.82 350.62
  A 0.81 0.81 0.0 0 1 263.01 351.43
  L 249.00 351.47
  Q 248.54 351.47 248.54 351.00
  L 248.58 279.50
  A 0.36 0.36 0.0 0 0 247.97 279.24
  L 231.46 295.66
  A 0.45 0.45 0.0 0 1 230.82 295.66
  L 220.94 285.78
  A 0.62 0.61 44.7 0 1 220.93 284.92
  Q 235.07 270.64 249.43 256.41
  C 253.50 252.38 257.74 251.24 262.05 255.45
  Q 276.97 270.02 291.45 285.00
  Q 291.83 285.40 291.45 285.79
  L 281.79 295.68
  A 0.60 0.60 0.0 0 1 280.93 295.68
  Z"
/>
</svg>
