<?xml version="1.0" encoding="UTF-8" standalone="no"?>
<!DOCTYPE svg PUBLIC "-//W3C//DTD SVG 1.1//EN" "http://www.w3.org/Graphics/SVG/1.1/DTD/svg11.dtd">
<svg xmlns="http://www.w3.org/2000/svg" version="1.1" viewBox="0.00 0.00 512.00 512.00">
<path fill="#4318ff" d="
  M 288.36 149.90
  A 0.22 0.21 -70.2 0 0 288.01 150.07
  Q 287.99 238.65 288.01 327.30
  Q 288.02 340.30 286.47 345.55
  C 282.59 358.76 269.32 368.45 255.22 368.00
  C 241.12 367.55 229.27 358.27 225.34 344.79
  Q 224.00 340.20 224.00 331.83
  Q 224.00 240.93 224.00 150.12
  A 0.26 0.25 70.0 0 0 223.58 149.92
  Q 197.84 171.97 172.08 194.06
  Q 161.83 202.85 156.89 205.02
  C 144.22 210.58 127.75 206.30 119.23 194.98
  C 111.17 184.26 110.41 169.61 117.71 158.27
  Q 120.38 154.14 127.60 147.96
  Q 177.10 105.58 226.52 63.12
  Q 237.60 53.60 242.49 51.20
  Q 255.81 44.67 269.19 51.05
  Q 274.28 53.48 285.23 62.88
  Q 335.08 105.68 384.98 148.44
  Q 393.13 155.43 395.84 159.68
  Q 401.08 167.94 400.60 177.75
  C 399.50 200.24 375.94 215.38 355.15 205.45
  Q 350.72 203.34 340.79 194.79
  Q 314.61 172.26 288.36 149.90
  Z"
/>
<rect fill="#4318ff" x="64.15" y="400.04" width="383.70" height="63.92" rx="31.41"/>
</svg>
